# Max2Obj Version 4.0 Mar 10th, 2001
#
# object frontWheelSpokes to come ...
#
v  89.482277 205.162109 301.386902
v  -74.215019 45.937134 210.249146
v  88.579842 90.837646 158.287842
v  -73.401855 125.227905 335.352722
v  88.805473 59.688660 184.392822
v  89.767189 153.739899 332.393127
v  88.573814 199.747253 175.092163
v  -73.947327 40.322754 246.296448
v  -73.685074 199.699707 308.312195
v  -74.770248 149.872040 150.427551
v  -74.539581 212.486694 192.411987
v  89.770256 87.092102 322.025146
v  -74.418922 221.371399 210.508972
v  89.538292 50.902313 284.141602
v  88.592354 202.650635 178.122375
v  -73.535187 176.568176 325.259277
v  89.259682 221.468628 273.297974
v  89.489357 47.507263 276.835327
v  -73.547699 64.755188 305.424744
v  -74.683563 101.749939 154.602417
v  88.465416 125.838013 148.157471
v  -73.414169 137.539825 335.646729
v  -73.725769 47.315796 278.017578
v  -74.577042 80.157166 165.811951
v  -74.044548 224.724854 262.737061
v  89.800957 137.731262 334.464478
v  89.802574 101.683044 328.849976
v  88.446007 154.170715 150.067261
v  -74.743927 173.291260 157.853149
v  -74.244606 47.441162 206.408447
v  88.934319 226.390381 229.174805
v  -73.725769 47.315796 278.017578
v  89.489357 47.507263 276.835327
v  -74.133606 226.597656 250.744568
v  89.199211 223.982056 265.356750
# 35 vertices

vn  0.732661 34.235973 33.930534
vn  1.208905 -44.836006 -17.668938
vn  3.205045 -28.528008 -38.727257
vn  -1.721507 -9.589749 47.212208
vn  48.205765 0.056546 -0.349173
vn  48.205765 0.056546 -0.349173
vn  48.205765 0.056546 -0.349173
vn  -48.205765 -0.056546 0.349173
vn  -48.205765 -0.056546 0.349173
vn  -48.205765 -0.056546 0.349173
vn  -0.163951 42.296669 -23.127584
vn  -0.052857 -25.268801 41.053677
vn  -48.205765 -0.056546 0.349173
vn  48.205765 0.056546 -0.349173
vn  1.176414 38.407272 -29.110434
vn  -0.899648 24.885649 41.277290
vn  48.205765 0.056546 -0.349173
vn  5.452652 -46.287720 -12.314043
vn  -48.205765 -0.056546 0.349173
vn  -1.579823 -17.486652 -44.895889
vn  48.205765 0.056546 -0.349173
vn  -48.205765 -0.056546 0.349173
vn  -2.665627 -30.363882 37.347679
vn  -48.205765 -0.056546 0.349173
vn  -0.901907 47.011139 10.632939
vn  1.692163 4.704200 47.947128
vn  48.205765 0.056546 -0.349173
vn  0.394681 9.396820 -47.280693
vn  -1.462681 18.280973 -44.582355
vn  -48.205765 -0.056546 0.349173
vn  48.205765 0.056546 -0.349173
vn  0.063634 -48.197048 0.980057
vn  0.272607 -36.262371 31.762966
vn  -48.205765 -0.056546 0.349173
vn  0.663308 47.764946 6.479976
# 35 vertex normals

g frontWheelSpokes
f 15//15 28//28 29//29
f 11//11 25//25 35//35
f 14//14 7//7 6//6
f 13//13 10//10 30//30
f 20//20 29//29 28//28
f 26//26 1//1 16//16
f 9//9 13//13 8//8
f 14//14 5//5 7//7
f 35//35 15//15 11//11
f 16//16 4//4 26//26
f 6//6 31//31 17//17
f 3//3 18//18 2//2
f 8//8 19//19 9//9
f 2//2 20//20 3//3
f 5//5 21//21 7//7
f 9//9 19//19 22//22
f 4//4 23//23 12//12
f 30//30 10//10 24//24
f 25//25 16//16 1//1
f 12//12 26//26 4//4
f 6//6 27//27 14//14
f 28//28 3//3 20//20
f 29//29 11//11 15//15
f 30//30 8//8 13//13
f 7//7 31//31 6//6
f 32//32 2//2 18//18
f 33//33 12//12 23//23
f 9//9 34//34 13//13
f 1//1 35//35 25//25
# 29 faces

g
# object backWheelSpokes to come ...
#
v  -7.581352 32.073456 -358.336365
v  -7.631981 247.062744 -330.508026
v  -6.557159 67.384949 -211.220703
v  5.351860 163.549225 -416.907043
v  6.618027 26.590118 -264.285706
v  6.274376 246.189514 -276.164398
v  6.961601 166.184265 -194.245667
v  -8.132431 122.013672 -419.850708
v  -6.918747 226.437134 -235.382294
v  5.678894 55.413879 -389.270935
v  -6.521362 156.538391 -191.839996
v  5.712120 238.608398 -355.015625
v  7.018227 89.876984 -198.785126
v  6.115547 22.803711 -334.270020
v  -7.254021 19.510529 -315.180206
v  -6.691566 43.923920 -233.576050
v  -6.539490 163.013000 -193.294952
v  6.803879 42.058411 -236.121704
v  -7.891708 230.572571 -369.036560
v  5.862152 36.989380 -366.955383
v  -8.160568 144.540955 -420.086548
v  5.367302 128.426727 -420.464111
v  -7.625618 35.188293 -363.943573
v  6.415604 239.679321 -257.720551
v  5.570511 225.053467 -376.760498
v  -7.924934 226.918945 -374.214844
v  -7.258789 246.898865 -279.012817
v  6.989609 156.554230 -191.937866
v  -7.230270 19.272949 -311.940430
v  -6.478775 99.143127 -195.256134
v  -6.740311 38.388977 -241.202118
v  5.945511 248.801880 -321.142883
v  -8.153252 169.818451 -414.982544
v  6.652817 220.359070 -228.101654
v  -8.037384 90.525848 -411.828369
v  5.461388 93.563202 -413.121277
v  6.256950 19.526398 -315.278076
v  6.256950 19.526398 -315.278076
v  -7.904510 65.382721 -397.555756
v  5.447098 204.234650 -397.170593
v  -7.254021 19.510529 -315.180206
v  6.983162 75.671783 -205.927795
v  -6.648804 190.100708 -203.998840
v  -6.744019 206.026672 -214.564178
v  -7.697090 244.521362 -339.908813
v  5.383682 184.835114 -409.066895
v  -7.401749 249.688599 -298.298248
v  6.748978 208.586914 -216.731628
v  7.039513 124.436462 -190.250000
v  6.819405 43.939758 -233.673920
v  5.486008 87.635040 -410.682251
v  -8.120193 187.698303 -407.523560
v  -6.492744 89.861145 -198.687256
v  7.040909 121.244202 -190.574158
# 54 vertices

vn  -43.953285 -0.051559 0.318371
vn  -43.953285 -0.051559 0.318371
vn  -43.953285 -0.051559 0.318371
vn  43.953285 0.051559 -0.318371
vn  43.953285 0.051559 -0.318371
vn  43.953285 0.051559 -0.318371
vn  43.953285 0.051559 -0.318371
vn  -43.953285 -0.051559 0.318371
vn  -43.953285 -0.051559 0.318371
vn  43.953285 0.051559 -0.318371
vn  -43.953285 -0.051559 0.318371
vn  43.953285 0.051559 -0.318371
vn  43.953285 0.051559 -0.318371
vn  43.953285 0.051559 -0.318371
vn  -0.233807 -42.257374 12.093591
vn  0.433653 -34.324528 27.452393
vn  1.226854 13.089590 41.942253
vn  -2.169049 -36.904793 23.776600
vn  1.883521 36.711178 -24.098486
vn  -1.054922 -35.433083 -25.988056
vn  8.379514 7.295886 -42.527031
vn  -8.374164 -5.275139 -42.825706
vn  -0.338289 -37.495152 -22.934572
vn  -15.290059 35.033981 21.698610
vn  -3.539449 32.037853 -29.883833
vn  -43.953285 -0.051559 0.318371
vn  5.439252 42.674088 9.018438
vn  -0.608011 8.176360 43.183010
vn  -43.953285 -0.051559 0.318371
vn  1.191756 -14.226775 41.571308
vn  -43.953285 -0.051559 0.318371
vn  -4.444064 43.542660 -4.035155
vn  -43.953285 -0.051559 0.318371
vn  43.953285 0.051559 -0.318371
vn  -0.157623 -16.774424 -40.627441
vn  43.953285 0.051559 -0.318371
vn  0.136750 -42.275162 12.032771
vn  0.355938 -41.809959 -13.557140
vn  -43.953285 -0.051559 0.318371
vn  43.953285 0.051559 -0.318371
vn  -0.048359 -41.845039 -13.453097
vn  -17.717649 -24.623932 31.807894
vn  -43.953285 -0.051559 0.318371
vn  0.418130 27.785524 34.055618
vn  5.998740 41.104626 -14.367324
vn  -1.500866 18.015530 -40.064735
vn  -43.953285 -0.051559 0.318371
vn  -1.906793 30.306496 31.778542
vn  43.953285 0.051559 -0.318371
vn  43.953285 0.051559 -0.318371
vn  -2.150478 -20.219782 -38.968330
vn  1.303749 21.461451 -38.336681
vn  -43.953285 -0.051559 0.318371
vn  -8.073843 -3.283891 43.081600
# 54 vertex normals

g backWheelSpokes
f 46//46 78//78 64//64
f 47//47 49//49 71//71
f 40//40 47//47 42//42
f 37//37 43//43 74//74
f 78//78 37//37 74//74
f 75//75 47//47 71//71
f 64//64 88//88 46//46
f 47//47 69//69 42//42
f 84//84 48//48 85//85
f 49//49 47//47 40//40
f 77//77 89//89 65//65
f 51//51 50//50 53//53
f 86//86 55//55 70//70
f 81//81 57//57 87//87
f 58//58 70//70 55//55
f 67//67 60//60 80//80
f 87//87 54//54 81//81
f 37//37 61//61 43//43
f 80//80 62//62 67//67
f 62//62 79//79 83//83
f 63//63 83//83 79//79
f 52//52 65//65 89//89
f 78//78 36//36 64//64
f 65//65 51//51 53//53
f 64//64 66//66 38//38
f 59//59 67//67 62//62
f 61//61 68//68 43//43
f 47//47 41//41 69//69
f 70//70 56//56 86//86
f 49//49 45//45 71//71
f 72//72 53//53 50//50
f 55//55 73//73 58//58
f 74//74 36//36 78//78
f 39//39 75//75 71//71
f 76//76 58//58 73//73
f 53//53 77//77 65//65
f 37//37 78//78 44//44
f 79//79 52//52 63//63
f 54//54 80//80 60//60
f 60//60 81//81 54//54
f 44//44 82//82 37//37
f 83//83 59//59 62//62
f 84//84 40//40 42//42
f 85//85 40//40 84//84
f 57//57 86//86 56//56
f 56//56 87//87 57//57
f 38//38 88//88 64//64
f 89//89 63//63 52//52
# 48 faces

g
